<svg width="800" height="800" viewBox="0 0 800 800" fill="none" xmlns="http://www.w3.org/2000/svg">
  <rect width="800" height="800" rx="48" fill="#FFFBEB"/>
  <rect x="120" y="160" width="560" height="480" rx="32" fill="#FFFFFF" stroke="#FDE68A" stroke-width="6"/>
  <rect x="140" y="180" width="100" height="16" rx="8" fill="#FBBF24"/>
  <rect x="280" y="180" width="60" height="16" rx="8" fill="#FCD34D"/>
  <rect x="520" y="180" width="80" height="16" rx="8" fill="#FCD34D"/>
  <rect x="140" y="250" width="520" height="180" rx="24" fill="#FEF3C7"/>
  <rect x="180" y="300" width="280" height="36" rx="18" fill="#92400E"/>
  <rect x="180" y="360" width="190" height="16" rx="8" fill="#D97706"/>
  <rect x="140" y="470" width="150" height="120" rx="24" fill="#FDE68A"/>
  <rect x="325" y="470" width="150" height="120" rx="24" fill="#FDE68A"/>
  <rect x="510" y="470" width="150" height="120" rx="24" fill="#FDE68A"/>
  <rect x="170" y="500" width="90" height="14" rx="7" fill="#B45309"/>
  <rect x="355" y="500" width="90" height="14" rx="7" fill="#B45309"/>
  <rect x="540" y="500" width="90" height="14" rx="7" fill="#B45309"/>
  <text x="400" y="700" text-anchor="middle" font-family="Arial, sans-serif" font-size="40" font-weight="bold" fill="#D97706">Event Website Design</text>
</svg>